PathFileType	4	(X/Y/Z)	/Users/itak/Documents/Research/Walk-IL/dataset/trc/00465_00167.trc
DataRate	CameraRate	NumFrames	NumMarkers	Units	OrigDataRate	OrigDataStartFrame	OrigNumFrames
100.000000	100.000000	4	53	mm	100.000000	510	681
Frame#	Time	RPSI			LPSI			L3			STRN			T10			C7			CLAV			RBAK			LBAK			LSHO			LUPA			LAEL			LAOL			LWTS			LWPS			LFRA			LIFD			LHPS			LHTS			RSHO			RUPA			RAEL			RAOL			RWTS			RWPS			RFRA			RIFD			RHTS			RHPS			RBHD			LFHD			RFHD			LBHD			LHIP			RHIP			RASI			LASI			LKNE			LTHI			LANK			LTIP			LTOE			LMT1			LMT5			LHEE			RKNE			RTHI			RANK			RTIP			RTOE			RMT1			RMT5			RHEE			
		X1	Y1	Z1	X2	Y2	Z2	X3	Y3	Z3	X4	Y4	Z4	X5	Y5	Z5	X6	Y6	Z6	X7	Y7	Z7	X8	Y8	Z8	X9	Y9	Z9	X10	Y10	Z10	X11	Y11	Z11	X12	Y12	Z12	X13	Y13	Z13	X14	Y14	Z14	X15	Y15	Z15	X16	Y16	Z16	X17	Y17	Z17	X18	Y18	Z18	X19	Y19	Z19	X20	Y20	Z20	X21	Y21	Z21	X22	Y22	Z22	X23	Y23	Z23	X24	Y24	Z24	X25	Y25	Z25	X26	Y26	Z26	X27	Y27	Z27	X28	Y28	Z28	X29	Y29	Z29	X30	Y30	Z30	X31	Y31	Z31	X32	Y32	Z32	X33	Y33	Z33	X34	Y34	Z34	X35	Y35	Z35	X36	Y36	Z36	X37	Y37	Z37	X38	Y38	Z38	X39	Y39	Z39	X40	Y40	Z40	X41	Y41	Z41	X42	Y42	Z42	X43	Y43	Z43	X44	Y44	Z44	X45	Y45	Z45	X46	Y46	Z46	X47	Y47	Z47	X48	Y48	Z48	X49	Y49	Z49	X50	Y50	Z50	X51	Y51	Z51	X52	Y52	Z52	X53	Y53	Z53	

511	5.100000000000001	-70.42305755615234	940.560791015625	-295.566650390625	-80.88874816894531	944.6851196289062	-153.3076629638672	-92.87489318847656	1047.282836914062	-229.2391052246094	-375.2464599609375	1228.2236328125	-242.5124053955078	-87.40084838867188	1170.794555664062	-218.9778137207031	-165.3194122314453	1437.357666015625	-241.2875518798828	-345.0903930664062	1342.633911132812	-240.1669464111328	-89.00183868408203	1316.880859375	-326.0717163085938	-137.2878875732422	1391.578002929688	-137.5033569335938	-246.0482330322266	1408.745849609375	-68.78226470947266	-250.6135711669922	1293.124633789062	33.36209869384766	-297.1126403808594	1079.468872070312	65.18179321289062	-205.7898406982422	1055.9775390625	20.69757652282715	-392.7969665527344	891.63037109375	-1.77764892578125	-362.3890075683594	872.0217895507812	63.21686172485352	-331.5519714355469	995.3789672851562	67.31097412109375	-432.5650634765625	739.5477905273438	18.26509857177734	-385.74267578125	801.2869262695312	67.374755859375	-427.6829833984375	813.9869995117188	9.253467559814453	-215.4113616943359	1400.819091796875	-403.8019714355469	-185.2660369873047	1342.760864257812	-475.8031616210938	-152.2762603759766	1062.456420898438	-540.10546875	-105.2492980957031	1047.393432617188	-492.885498046875	-242.8227691650391	849.25	-515.4998779296875	-168.0307159423828	841.6295166015625	-563.2630615234375	-149.6369323730469	1004.362365722656	-551.9094848632812	-233.2345275878906	695.6790161132812	-533.6937255859375	-250.6155700683594	753.4689331054688	-535.22802734375	-178.1035461425781	755.5535278320312	-568.8226928710938	-262.0768737792969	1628.69287109375	-332.8626403808594	-408.2288818359375	1630.632934570312	-185.5726318359375	-399.0659484863281	1632.32421875	-316.3878173828125	-258.2713317871094	1632.926025390625	-155.2823944091797	-212.8715667724609	839.1234741210938	-41.49499893188477	-197.3558502197266	853.7404174804688	-445.0119934082031	-292.698486328125	899.5350341796875	-373.9570922851562	-312.1083374023438	873.4729614257812	-120.7486267089844	-155.072998046875	426.0857238769531	-100.5560150146484	-205.0100860595703	572.1622924804688	-72.69647979736328	-3.845173120498657	38.59072875976562	-117.1807022094727	-119.9100723266602	279.21142578125	-97.25099945068359	-227.9674987792969	37.82963943481445	-212.8156433105469	-149.8325500488281	44.11381912231445	-230.4056701660156	-155.9504699707031	43.51217651367188	-116.8528823852539	47.00196838378906	44.85836791992188	-175.8689270019531	-390.1747131347656	504.3292541503906	-443.1531372070312	-283.4338073730469	741.6286010742188	-460.862060546875	-433.6461791992188	65.46153259277344	-461.4529724121094	-421.2011413574219	363.4440002441406	-461.8584594726562	-635.3836669921875	124.4891357421875	-420.7059631347656	-577.9556884765625	105.547737121582	-379.9736938476562	-563.317138671875	88.95457458496094	-481.0755004882812	-369.2272338867188	52.10762786865234	-414.5497131347656	
512	5.11	-77.73367309570312	938.5437622070312	-296.8824157714844	-87.58951568603516	943.202392578125	-154.6929626464844	-99.75003814697266	1045.5576171875	-230.621826171875	-382.251708984375	1226.23583984375	-244.2721252441406	-94.36758422851562	1169.130615234375	-220.3552551269531	-172.6784057617188	1435.519287109375	-243.0856475830078	-352.3101806640625	1340.70458984375	-242.1710662841797	-96.02003479003906	1315.02294921875	-327.4361877441406	-144.7530975341797	1390.082885742188	-139.0956726074219	-253.8139495849609	1407.157592773438	-70.63646697998047	-258.5432739257812	1291.427001953125	31.43671798706055	-304.7119750976562	1077.326416015625	62.10957717895508	-213.0796508789062	1054.243896484375	18.15728378295898	-399.8311767578125	889.8982543945312	-6.80103874206543	-369.9682922363281	869.8455810546875	58.31074523925781	-339.1291198730469	993.2027587890625	63.47430038452148	-439.6546936035156	737.6629638671875	11.6449670791626	-393.3337097167969	799.06005859375	61.71511840820312	-434.8190307617188	812.1891479492188	3.404848098754883	-222.3678588867188	1398.588500976562	-405.6884155273438	-191.7833862304688	1340.496337890625	-477.4590759277344	-156.6339263916016	1060.30419921875	-540.7971801757812	-109.8100357055664	1046.0595703125	-493.1509094238281	-244.0047607421875	845.5781860351562	-516.4459228515625	-168.9225158691406	839.2545166015625	-563.822265625	-153.1143798828125	1002.265197753906	-552.5034790039062	-231.8748626708984	692.14208984375	-534.8622436523438	-249.9695587158203	749.7088623046875	-535.9708251953125	-177.1169586181641	753.04833984375	-569.3257446289062	-269.12890625	1626.626708984375	-335.2062683105469	-415.3628234863281	1628.948974609375	-188.054443359375	-406.104736328125	1630.41064453125	-318.8603820800781	-265.420166015625	1631.108276367188	-157.6405334472656	-219.1051483154297	838.106689453125	-42.10941314697266	-204.8441162109375	851.1910400390625	-445.5963134765625	-300.5768127441406	897.3989868164062	-374.73193359375	-318.6512145996094	872.0447998046875	-121.2489471435547	-159.3381652832031	425.2391052246094	-101.1679382324219	-210.1776580810547	571.2019653320312	-73.43702697753906	-3.975475549697876	38.84627151489258	-117.1775665283203	-122.5941619873047	278.4811096191406	-97.71895599365234	-228.1806335449219	37.81964111328125	-212.6078948974609	-149.8857574462891	44.10147476196289	-230.5050811767578	-155.9678039550781	43.38908767700195	-116.7782974243164	46.92870712280273	45.36222076416016	-175.8248291015625	-396.7319641113281	500.9681396484375	-442.7142639160156	-290.7525024414062	738.834716796875	-461.4747314453125	-460.3431396484375	65.10307312011719	-463.8501281738281	-433.7244567871094	362.3679809570312	-462.2139282226562	-658.3984375	132.9092407226562	-419.15966796875	-601.1893920898438	111.1138305664062	-379.5723266601562	-589.1715087890625	94.14454650878906	-480.8955993652344	-395.8084106445312	48.71709823608398	-418.1714477539062	
513	5.12	-85.20921325683594	936.419921875	-298.2969970703125	-94.3751220703125	941.6445922851562	-156.1791839599609	-106.7362365722656	1043.73876953125	-232.1051483154297	-389.3668518066406	1224.1259765625	-246.0877685546875	-101.4483947753906	1167.38720703125	-221.8419952392578	-180.1509857177734	1433.5810546875	-244.958740234375	-359.61376953125	1338.65380859375	-244.2610473632812	-103.1512298583984	1313.055297851562	-328.8587646484375	-152.3369903564453	1388.501953125	-140.7575531005859	-261.7037353515625	1405.462768554688	-72.55979919433594	-266.5547790527344	1289.611694335938	29.4394645690918	-312.3013916015625	1075.055541992188	58.9910774230957	-220.3698272705078	1052.411010742188	15.556077003479	-406.7554016113281	887.9685668945312	-11.83029460906982	-377.4094848632812	867.52001953125	53.39289093017578	-346.651123046875	990.88134765625	59.61005401611328	-446.4825744628906	735.5739135742188	5.034398555755615	-400.7345581054688	796.6649169921875	56.06009292602539	-441.7675170898438	810.1849975585938	-2.435470819473267	-229.437255859375	1396.24951171875	-407.6470947265625	-198.3999481201172	1338.137084960938	-479.1754760742188	-161.0408325195312	1058.085571289062	-541.5784301757812	-114.4059448242188	1044.651245117188	-493.5658569335938	-245.3470458984375	841.97314453125	-517.3397827148438	-170.0753479003906	836.8538208007812	-564.3909301757812	-156.6758422851562	1000.103393554688	-553.1769409179688	-230.8365173339844	688.5828247070312	-535.8885498046875	-249.5327758789062	745.9982299804688	-536.5233764648438	-176.5106811523438	750.5270385742188	-569.7184448242188	-276.2639465332031	1624.452880859375	-337.6489562988281	-422.5798034667969	1627.190185546875	-190.6212158203125	-413.2257080078125	1628.415771484375	-321.4251403808594	-272.6415710449219	1629.189331054688	-160.0987396240234	-225.4264221191406	837.0518188476562	-42.76104736328125	-212.5372009277344	848.4835815429688	-446.2231140136719	-308.6475524902344	895.0914916992188	-375.583740234375	-325.2879638671875	870.5387573242188	-121.756477355957	-163.6227874755859	424.3780212402344	-101.741081237793	-215.3979034423828	570.2189331054688	-74.15859222412109	-4.098373413085938	39.14752960205078	-117.1686706542969	-125.2755279541016	277.76611328125	-98.13697052001953	-228.3929138183594	37.80080413818359	-212.40478515625	-149.9307556152344	44.1072998046875	-230.58984375	-155.9936828613281	43.22883987426758	-116.6494293212891	46.83253479003906	45.95647430419922	-175.7793731689453	-403.2206115722656	497.4213256835938	-442.317626953125	-298.2529296875	735.8367919921875	-462.1654357910156	-486.1791687011719	65.32064056396484	-465.8825073242188	-445.8079223632812	361.360107421875	-462.5379333496094	-680.2982788085938	141.4578704833984	-417.3443908691406	-623.3897705078125	116.9453506469727	-378.9088439941406	-613.9747924804688	99.59833526611328	-480.3782653808594	-421.6077270507812	46.07316589355469	-421.4059753417969	
514	5.13	-92.85578918457031	934.1984252929688	-299.8279113769531	-101.2531509399414	940.0234985351562	-157.7839965820312	-113.8409118652344	1041.828247070312	-233.6997222900391	-396.5982666015625	1221.903198242188	-247.9585418701172	-108.6480178833008	1165.562133789062	-223.4380187988281	-187.736083984375	1431.547607421875	-246.9053649902344	-366.9985656738281	1336.48876953125	-246.4368591308594	-110.3845443725586	1310.9775390625	-330.3406982421875	-160.0433502197266	1386.83544921875	-142.4910583496094	-269.7158813476562	1403.6630859375	-74.54972839355469	-274.6468505859375	1287.678100585938	27.36979675292969	-319.8859558105469	1072.658325195312	55.83079528808594	-227.6639709472656	1050.47998046875	12.89578342437744	-413.5735473632812	885.8381958007812	-16.85721206665039	-384.7154235839844	865.0470581054688	48.47927093505859	-354.1195068359375	988.4197387695312	55.7262077331543	-453.0816345214844	733.2908935546875	-1.52405571937561	-407.9585571289062	794.1053466796875	50.43325042724609	-448.5363464355469	807.98193359375	-8.253722190856934	-236.6128540039062	1393.80419921875	-409.6791076660156	-205.1123352050781	1335.680908203125	-480.9505920410156	-165.5161285400391	1055.800170898438	-542.4468994140625	-119.0453796386719	1043.15576171875	-494.1229858398438	-246.8849487304688	838.4381713867188	-518.2068481445312	-171.4824829101562	834.4133911132812	-564.9721069335938	-160.3312225341797	997.876708984375	-553.9280395507812	-230.0577239990234	685.0100708007812	-536.6701049804688	-249.3006134033203	742.2908325195312	-536.9003295898438	-176.2892150878906	747.9715576171875	-570.00830078125	-283.48046875	1622.18408203125	-340.1915588378906	-429.8833923339844	1625.355590820312	-193.2632751464844	-420.4282836914062	1626.347290039062	-324.0779418945312	-279.9364013671875	1627.177978515625	-162.6577606201172	-231.8247833251953	835.9668579101562	-43.45618438720703	-220.4384918212891	845.6301879882812	-446.8921813964844	-316.9056396484375	892.6190185546875	-376.5090637207031	-332.0263671875	868.9668579101562	-122.2707214355469	-167.8971252441406	423.517822265625	-102.2627639770508	-220.6493530273438	569.2212524414062	-74.85169982910156	-4.21631383895874	39.5037841796875	-117.1479949951172	-127.9339447021484	277.0824584960938	-98.48423767089844	-228.5963439941406	37.77123641967773	-212.2125701904297	-149.9716949462891	44.13721084594727	-230.6495971679688	-156.0327758789062	43.03090667724609	-116.4650344848633	46.71786880493164	46.65535736083984	-175.7265472412109	-409.6825561523438	493.7454528808594	-442.0119018554688	-305.8856811523438	732.6307983398438	-462.923095703125	-510.9451904296875	65.92964172363281	-467.4886779785156	-457.392822265625	360.3736572265625	-462.8511657714844	-700.9859008789062	149.9092407226562	-415.4222717285156	-644.4700317382812	122.8789215087891	-378.0783081054688	-637.5382080078125	105.1130447387695	-479.6091003417969	-446.4264831542969	44.05644607543945	-424.1165771484375	
